<?xml version="1.0" standalone="no"?>
<!DOCTYPE svg PUBLIC "-//W3C//DTD SVG 20010904//EN"
 "http://www.w3.org/TR/2001/REC-SVG-20010904/DTD/svg10.dtd">
<svg version="1.0" xmlns="http://www.w3.org/2000/svg"
 width="441.000000pt" height="446.000000pt" viewBox="0 0 441.000000 446.000000"
 preserveAspectRatio="xMidYMid meet">
<metadata>
Created by potrace 1.16, written by Peter Selinger 2001-2019
</metadata>
<g transform="translate(0.000000,446.000000) scale(0.100000,-0.100000)"
fill="#000000" stroke="none">
<path d="M1995 4358 c-371 -37 -740 -179 -1054 -405 -123 -87 -358 -321 -448
-443 -183 -250 -312 -528 -373 -800 -11 -49 -20 -95 -20 -102 0 -19 282 -16
291 3 4 8 19 59 34 114 178 651 716 1160 1386 1309 413 92 841 40 1221 -149
565 -281 951 -831 1023 -1457 l6 -58 -151 0 c-147 0 -152 1 -175 25 l-25 24 0
264 c0 211 -3 274 -16 317 -40 136 -152 234 -296 260 -155 29 -325 -63 -394
-213 l-29 -62 -5 -730 c-4 -549 -8 -735 -17 -751 -22 -39 -76 -46 -114 -15
l-24 19 -5 1009 -5 1008 -32 67 c-39 82 -106 151 -181 186 -50 24 -70 27 -157
27 -89 0 -106 -3 -157 -28 -113 -55 -190 -163 -208 -288 -6 -37 -10 -591 -10
-1287 0 -854 -3 -1229 -10 -1243 -23 -43 -91 -46 -127 -7 -17 19 -18 71 -23
1032 l-5 1011 -28 57 c-113 230 -400 285 -586 112 -40 -36 -67 -73 -87 -116
l-29 -63 -5 -738 -5 -739 -24 -19 c-32 -26 -77 -24 -106 6 l-25 24 0 258 c0
278 -7 326 -53 406 -35 59 -108 124 -175 155 l-57 27 -321 3 -321 3 -7 -78
c-7 -92 7 -304 29 -433 136 -782 693 -1427 1444 -1674 249 -81 464 -112 736
-103 336 10 615 80 905 228 551 280 952 779 1106 1377 19 73 34 139 34 147 0
13 -25 15 -145 15 -108 0 -147 -3 -149 -13 -2 -6 -17 -61 -34 -122 -132 -481
-480 -906 -932 -1139 -458 -236 -981 -272 -1469 -101 -662 231 -1150 845
-1226 1543 l-7 62 145 0 c140 0 147 -1 174 -24 l28 -24 5 -289 c5 -285 5 -289
31 -344 81 -173 267 -256 447 -201 107 34 184 102 236 212 21 44 21 55 26 781
5 695 6 738 23 757 26 29 62 35 97 17 17 -9 31 -17 32 -18 2 -1 5 -456 8
-1012 l5 -1010 24 -60 c34 -83 124 -173 206 -205 78 -30 198 -32 267 -4 106
43 179 117 218 220 20 53 20 74 20 1302 0 785 4 1261 10 1283 12 41 34 59 73
59 35 0 62 -14 73 -37 5 -10 11 -470 14 -1023 l5 -1005 27 -57 c98 -210 354
-281 545 -152 61 42 94 83 131 162 l27 57 3 732 3 732 30 25 c38 33 60 33 98
1 l30 -26 3 -282 c5 -315 7 -332 76 -421 20 -27 59 -64 85 -83 87 -59 116 -63
459 -63 l308 0 0 158 c0 248 -29 429 -106 662 -267 808 -993 1382 -1844 1459
-133 13 -277 12 -405 -1z"/>
</g>
</svg>
