<svg width="24" height="24" viewBox="0 0 24 24" fill="none" xmlns="http://www.w3.org/2000/svg">
<path d="M17.8051 10.4778C14.4765 8.81328 9.12605 8.9993 6.15243 10.1666C5.66454 10.3522 5.14422 10.089 4.96218 9.65102C4.77655 9.16313 5.03974 8.64281 5.47776 8.46078C8.94287 7.15771 14.7921 6.93567 18.641 8.86334C19.1078 9.08027 19.3007 9.6679 19.0837 10.1347C18.8596 10.5018 18.272 10.6947 17.8051 10.4778ZM17.9072 13.2777C17.683 13.6448 17.245 13.8268 16.8779 13.6027C14.066 12.1515 9.94065 11.9483 6.8709 13.1726C6.47914 13.3012 6.0159 13.1341 5.88734 12.7424C5.75878 12.3506 5.92583 11.8874 6.31759 11.7588C9.87884 10.3987 14.4068 10.623 17.6356 12.2947C17.9456 12.4227 18.1313 12.9106 17.9072 13.2777ZM16.9084 16.107C16.7306 16.4206 16.3887 16.5456 16.075 16.3677C13.6267 15.0908 10.6627 15.0042 7.22947 16.0543C6.88758 16.1793 6.57035 15.9515 6.44899 15.6595C6.32403 15.3176 6.55177 15.0004 6.84378 14.879C10.5727 13.7574 13.8893 13.8687 16.5978 15.2772C16.9577 15.4016 17.0364 15.797 16.9084 16.107ZM11.2792 2.02603C9.96938 2.12065 8.69103 2.47234 7.51714 3.061C6.34325 3.64966 5.2968 4.46377 4.43754 5.45686C2.70218 7.46247 1.83463 10.0753 2.02573 12.7206C2.21683 15.3659 3.45094 17.8269 5.45656 19.5622C6.44964 20.4215 7.60224 21.0767 8.84855 21.4906C10.0949 21.9044 11.4105 22.0687 12.7203 21.974C15.3656 21.7829 17.8266 20.5488 19.5619 18.5432C21.2973 16.5376 22.1648 13.9248 21.9737 11.2795C21.8791 9.96968 21.5274 8.69133 20.9388 7.51744C20.3501 6.34355 19.536 5.2971 18.5429 4.43784C17.5498 3.57858 16.3972 2.92333 15.1509 2.50951C13.9046 2.09569 12.589 1.9314 11.2792 2.02603Z" fill="black"/>
</svg>
